# xmcd CD database file
#
# Track frame offsets:
#	150
#	26037
#	73685
#	91387
#	104132
#	145977
#	157430
#	183117
#	234402
#	253240
#
# Disc length: 3719 seconds
#
# Revision: 0
# Processed by: cddbd v1.5.2PL0 Copyright (c) Steve Scherf et al.
# Submitted via: CDex 1.51
#
DISCID=940e850a
DTITLE=Thelonious Monk - The Essence of Thelonious Monk
DYEAR=1982
DGENRE=Jazz
TTITLE0=MONK'S DREAM
TTITLE1=STRAIGHT, NO CHASER
TTITLE2=RHYTHM - A - NING
TTITLE3=CREPUSCULE WITH NELLIE
TTITLE4='ROUND ABOUT MIDNIGHT
TTITLE5=DINAH
TTITLE6=RUBY, MY DEAR
TTITLE7=BLUE MONK
TTITLE8=BEMSHA SWING
TTITLE9=I'M GETTIN' SENTIMENTAL OVER YOU
EXTD=YEAR: 1982
EXTT0=
EXTT1=
EXTT2=
EXTT3=
EXTT4=
EXTT5=
EXTT6=
EXTT7=
EXTT8=
EXTT9=
PLAYORDER=
